# xmcd
#
# Track frame offsets:
#	150
#	13366
#	27725
#	40629
#	55408
#	66950
#	83984
#	95827
#	107038
#	117213
#	130943
#	141824
#	152611
#	165072
#	178091
#	194380
#
# Disc length: 2758
#
# Revision: 1
# Processed by: cddbd v1.5.1PL0 Copyright (c) Steve Scherf et al.
# Submitted via: audiograbber 1.80
# Normalized: r0:TDELIM( - )
#
DISCID=dd0ac410
DTITLE=Schmusenacht - Vol.4
DYEAR=1900
DGENRE=
TTITLE0=Lobo - Me and you and a dog named Boo
TTITLE1=Gene Pitney - Somewhere in the country
TTITLE2=Kenny Rogers - Ruby don't take your love to town
TTITLE3=Four Seasons - Let's hang on
TTITLE4=The Toys - A lovers concarto
TTITLE5=Lynn Anderson - Blue Bayou
TTITLE6=Paul Anka - Put your head on my shoulder
TTITLE7=America - Lonely people
TTITLE8=Pat Boone - Love letters in the sand
TTITLE9=Neil Diamond - Monday Monday
TTITLE10=Fats Domino - Blueberry Hill
TTITLE11=Everly Brothers - All I have to do is dream
TTITLE12=Astrud Gilberto - The girl from Ipanerna
TTITLE13=Isley Brothers - This old heart of mine
TTITLE14=Righteous Brothers - Unchained Melody
TTITLE15=Dion - The Wanderer
EXTD=
EXTT0=
EXTT1=
EXTT2=
EXTT3=
EXTT4=
EXTT5=
EXTT6=
EXTT7=
EXTT8=
EXTT9=
EXTT10=
EXTT11=
EXTT12=
EXTT13=
EXTT14=
EXTT15=
PLAYORDER=
